<svg width="981" height="934" viewBox="0 0 981 934" fill="none" xmlns="http://www.w3.org/2000/svg">
<path fill-rule="evenodd" clip-rule="evenodd" d="M790.621 1.45697C787.688 2.92364 773.955 20.657 744.088 61.7237C736.621 71.9904 723.021 90.5237 713.821 103.057C704.621 115.457 693.021 131.324 688.088 137.99C683.155 144.79 678.755 150.39 678.221 150.39C677.821 150.39 674.088 145.59 669.955 139.724C652.755 115.324 631.555 93.3237 608.755 76.5237C576.355 52.657 536.888 35.1903 501.421 28.9236C479.955 25.057 448.621 25.057 423.821 28.9236C396.221 33.057 384.088 37.057 356.488 50.5237C333.688 61.7237 317.288 73.3237 298.221 91.5903C268.888 119.724 248.355 150.39 232.488 190.39C226.755 204.524 220.488 225.457 219.155 234.657L218.221 240.657L202.088 241.457C168.888 243.057 138.888 251.59 111.155 267.457C78.4879 286.39 44.4879 319.457 28.2212 348.39C8.35454 383.857 -1.64546 426.924 0.221208 469.057C1.82121 506.124 8.75454 529.59 27.9545 563.724C31.9545 570.657 35.9545 578.124 37.0212 580.124C40.4879 586.79 55.5545 604.657 66.0879 614.39C81.0212 628.257 92.7545 636.257 112.488 645.724C135.688 656.924 144.755 660.257 160.488 663.857L173.821 666.924L376.888 667.324L579.821 667.857V671.19C579.821 676.39 583.288 683.324 587.021 685.724C589.688 687.457 592.355 687.857 598.088 687.457C604.888 686.924 606.088 686.257 610.088 681.59C612.488 678.79 615.421 674.524 616.621 672.124L619.021 667.99L722.355 667.324C836.355 666.657 840.221 666.524 864.355 658.257C890.088 649.457 911.955 635.59 932.488 615.057C974.888 572.924 989.421 518.79 976.355 452.39C966.355 402.257 931.421 356.257 883.555 330.39C877.821 327.324 873.155 324.524 873.155 323.99C873.155 323.59 880.088 313.99 888.621 302.657C897.155 291.324 904.888 280.124 905.821 277.857C907.955 272.79 906.621 264.924 902.888 260.79L902.827 260.722C897.289 254.524 897.288 254.522 823.955 254.124C770.755 253.857 754.488 253.324 754.488 252.124C754.488 248.924 794.488 87.9903 800.755 66.3903C813.821 20.257 814.888 14.3904 811.288 7.99036C807.421 0.923689 797.955 -2.0097 790.621 1.45697ZM753.155 126.39C756.755 112.79 759.821 100.924 759.821 99.9904C759.821 97.5904 757.688 97.9903 755.688 100.924C754.621 102.39 737.821 124.657 718.355 150.657C698.888 176.524 663.421 223.857 639.555 255.724C615.821 287.59 589.021 323.457 580.088 335.457C571.155 347.457 563.821 357.724 563.821 358.39C563.821 359.057 584.221 359.59 612.221 359.724C638.755 359.724 667.555 360.124 676.355 360.657C690.355 361.324 692.488 361.857 695.955 364.657C699.021 367.324 699.821 369.057 699.821 373.457C699.821 376.657 692.221 405.19 681.955 440.39C653.421 537.99 641.155 580.524 641.155 581.59C641.155 583.324 646.355 576.39 671.821 541.057C714.755 481.324 734.221 454.79 766.355 411.724C831.288 324.524 857.155 289.057 857.155 286.524C857.155 285.457 837.955 285.057 794.221 285.057C754.621 285.057 729.288 284.524 726.221 283.59C722.621 282.657 720.488 281.057 719.021 278.124C715.155 270.524 714.355 274.39 737.821 184.39C742.621 165.99 749.421 139.99 753.155 126.39Z" fill="#4F4F4F"/>
<path d="M759.821 99.9904C759.821 100.924 756.755 112.79 753.155 126.39C749.421 139.99 742.621 165.99 737.821 184.39C714.355 274.39 715.155 270.524 719.021 278.124C720.488 281.057 722.621 282.657 726.221 283.59C729.288 284.524 754.621 285.057 794.221 285.057C837.955 285.057 857.155 285.457 857.155 286.524C857.155 289.057 831.288 324.524 766.355 411.724C734.221 454.79 714.755 481.324 671.821 541.057C646.355 576.39 641.155 583.324 641.155 581.59C641.155 580.524 653.421 537.99 681.955 440.39C692.221 405.19 699.821 376.657 699.821 373.457C699.821 369.057 699.021 367.324 695.955 364.657C692.488 361.857 690.355 361.324 676.355 360.657C667.555 360.124 638.755 359.724 612.221 359.724C584.221 359.59 563.821 359.057 563.821 358.39C563.821 357.724 571.155 347.457 580.088 335.457C589.021 323.457 615.821 287.59 639.555 255.724C663.421 223.857 698.888 176.524 718.355 150.657C737.821 124.657 754.621 102.39 755.688 100.924C757.688 97.9903 759.821 97.5904 759.821 99.9904Z" fill="#FDC53A"/>
<path d="M491.821 933.457C537.287 933.057 567.954 902.123 571.288 853.057C573.154 827.857 562.887 795.19 536.887 743.19C523.288 715.991 518.888 709.057 513.688 706.924C508.355 704.657 509.421 704.657 503.821 707.457C500.621 709.057 493.154 717.857 478.221 737.724C436.355 793.19 429.021 804.924 421.821 827.724C417.021 842.924 415.688 866.124 419.155 877.724C423.021 891.19 428.888 901.057 439.021 911.19C454.088 926.257 471.288 933.457 491.821 933.457Z" fill="#4F4F4F"/>
<path d="M491.821 933.457C537.287 933.057 567.954 902.123 571.288 853.057C573.154 827.857 562.887 795.19 536.887 743.19C523.288 715.991 518.888 709.057 513.688 706.924C508.355 704.657 509.421 704.657 503.821 707.457C500.621 709.057 493.154 717.857 478.221 737.724C436.355 793.19 429.021 804.924 421.821 827.724C417.021 842.924 415.688 866.124 419.155 877.724C423.021 891.19 428.888 901.057 439.021 911.19C454.088 926.257 471.288 933.457 491.821 933.457Z" stroke="#242424"/>
<path d="M681.555 926.923C710.755 939.723 746.888 933.19 767.288 911.457C783.021 894.657 790.621 873.99 790.888 847.723C791.021 830.657 788.355 818.256 779.021 793.457C771.688 773.723 746.221 721.058 739.688 711.991C737.954 709.591 731.154 705.057 729.154 705.057C728.754 705.058 726.354 706.124 723.821 707.457C718.221 710.257 669.555 774.124 657.021 795.057C635.955 830.39 631.421 864.657 644.354 890.124C652.621 906.39 666.888 920.523 681.555 926.923Z" fill="#4F4F4F"/>
<path d="M681.555 926.923C710.755 939.723 746.888 933.19 767.288 911.457C783.021 894.657 790.621 873.99 790.888 847.723C791.021 830.657 788.355 818.256 779.021 793.457C771.688 773.723 746.221 721.058 739.688 711.991C737.954 709.591 731.154 705.057 729.154 705.057C728.754 705.058 726.354 706.124 723.821 707.457C718.221 710.257 669.555 774.124 657.021 795.057C635.955 830.39 631.421 864.657 644.354 890.124C652.621 906.39 666.888 920.523 681.555 926.923Z" stroke="#242424"/>
<path d="M270.488 933.323C302.621 933.59 327.688 918.657 340.888 891.724C356.755 859.19 355.421 830.39 335.554 783.057C325.954 760.257 303.155 715.457 298.622 710.523C293.422 704.923 285.821 704.79 280.221 709.99C278.088 712.124 273.688 717.324 270.488 721.724C267.288 726.124 256.621 740.523 246.754 753.59C207.954 805.323 198.621 825.324 198.087 857.724C197.821 869.857 198.355 873.857 200.888 881.057C209.155 905.19 224.888 921.324 247.821 929.724C255.954 932.657 260.221 933.323 270.488 933.323Z" fill="#4F4F4F"/>
<path d="M270.488 933.323C302.621 933.59 327.688 918.657 340.888 891.724C356.755 859.19 355.421 830.39 335.554 783.057C325.954 760.257 303.155 715.457 298.622 710.523C293.422 704.923 285.821 704.79 280.221 709.99C278.088 712.124 273.688 717.324 270.488 721.724C267.288 726.124 256.621 740.523 246.754 753.59C207.954 805.323 198.621 825.324 198.087 857.724C197.821 869.857 198.355 873.857 200.888 881.057C209.155 905.19 224.888 921.324 247.821 929.724C255.954 932.657 260.221 933.323 270.488 933.323Z" stroke="#242424"/>
</svg>
