<svg width="398" height="266" viewBox="0 0 398 266" fill="none" xmlns="http://www.w3.org/2000/svg">
<path d="M117.337 78.4832C111.316 85.6545 109.856 92.1936 109.321 113.133L108.817 133.593L102.066 136.567C90.5453 141.679 90.4786 141.563 104.056 178.681C110.303 196.167 116.327 211.934 117.26 213.55C119.26 217.015 124.062 218.399 129.415 217.002C133.181 216.06 151.768 198.386 155.354 205.399C160.844 216.24 172.799 202.231 170.854 215.324C179.573 212.291 181.378 220.872 183.408 219.855C188.026 217.188 189.655 211.475 187.379 205.399C186.325 202.774 185.485 199.718 185.546 198.759C185.639 197.32 194.322 193.692 219.98 184.267L254.291 171.694L257.895 179.005C263.172 190.277 264.86 190.534 285.912 182.998C295.39 179.681 304.468 175.671 306.001 174.325C309.46 171.25 309.836 166.568 307.142 159.502C305.15 154.185 305.15 154.185 310 151.385C319.007 146.185 318.904 145.475 306.011 109.81C299.698 92.2082 293.74 76.5566 292.74 74.8246C290.474 70.8986 284.384 69.9499 277.664 72.4441C273.751 73.9334 272.081 73.9739 270.419 72.1621C269.272 70.9764 263.256 64.2888 257.039 57.2547C241.731 40.0735 232.099 34.8573 219.409 37.4111C213.328 38.6124 129.221 69.4666 124.717 72.0666C122.59 73.4488 119.295 76.2749 117.337 78.4832ZM180.491 73.7367C214.455 61.3638 224.364 58.2601 227.096 58.9922C229.282 59.5778 234.263 63.9382 240.528 70.7902C245.963 76.7363 250.384 81.7276 250.402 82.0252C249.976 82.8871 132.628 125.235 131.468 124.826C129.829 124.387 130.54 98.419 132.276 94.4918C133.013 92.8347 134.46 91.0752 135.499 90.4752C136.423 89.9418 156.698 82.3929 180.491 73.7367ZM136.53 147.461C142.811 146.606 148 149.461 151.467 155.465C154.8 161.239 154.74 166.2 151.405 171.358C147.152 178.125 138.282 180.629 131.156 177.353C127.345 175.551 122.065 167.206 121.979 162.79C121.747 158.922 125.898 151.444 129.246 149.511C130.632 148.711 133.919 147.737 136.53 147.461ZM268.442 99.9384C279.689 100.219 286.546 109.963 282.89 120.696C276.801 138.683 249.649 132.189 253.006 113.469C254.553 104.416 259.891 99.7946 268.442 99.9384Z" fill="#FB9726"/>
<path d="M58.4 197.288C45.8667 205.821 40 207.555 21.4667 207.821C8.26667 207.955 4.53333 208.355 2.4 210.088C-0.8 212.888 -0.8 216.488 2.4 220.488C4.8 223.555 5.73333 223.688 22.1333 223.688C40.5333 223.555 50.1333 221.288 61.2 214.355L66.2667 211.155L74.8 215.688C96.4 227.155 124.667 227.155 146.133 215.821L154.533 211.288L162.933 215.821C184.533 227.288 212.667 227.155 234.267 215.688C242.8 211.155 242.933 211.155 246.4 213.555C266 226.888 299.333 227.955 322.267 215.688L330.8 211.155L335.867 214.355C346.267 220.888 356.667 223.555 372.533 223.555C389.067 223.688 394.267 222.088 396.4 215.955C397.6 212.755 397.2 211.821 394.267 208.755C390.8 205.421 390.533 205.288 384.533 207.021C376.667 209.155 361.467 208.088 352.533 204.755C348.933 203.288 342.667 199.955 338.667 197.288C331.067 191.955 328.267 191.821 323.2 196.488C321.733 197.821 316.4 200.888 311.2 203.288C302.4 207.421 301.067 207.688 287.2 207.688C270.133 207.688 263.333 205.821 251.333 197.688C242.533 191.688 240.933 191.688 233.2 197.821C223.867 205.155 215.467 207.555 198.533 207.555C181.333 207.555 175.067 205.688 162.4 197.021C158.667 194.488 155.067 192.355 154.533 192.355C154 192.355 150.4 194.488 146.667 197.021C134.267 205.555 127.6 207.555 111.2 207.555C94.5333 207.688 88.4 205.955 75.3333 197.421C70.9333 194.621 66.9333 192.355 66.4 192.355C65.8667 192.355 62.2667 194.621 58.4 197.288Z" fill="#61A2D0"/>
<path d="M58.4 234.288C45.8667 242.821 40 244.555 21.4667 244.821C8.26667 244.955 4.53333 245.355 2.4 247.088C-0.8 249.888 -0.8 253.488 2.4 257.488C4.8 260.555 5.73333 260.688 22.1333 260.688C40.5333 260.555 50.1333 258.288 61.2 251.355L66.2667 248.155L74.8 252.688C96.4 264.155 124.667 264.155 146.133 252.821L154.533 248.288L162.933 252.821C184.533 264.288 212.667 264.155 234.267 252.688C242.8 248.155 242.933 248.155 246.4 250.555C266 263.888 299.333 264.955 322.267 252.688L330.8 248.155L335.867 251.355C346.267 257.888 356.667 260.555 372.533 260.555C389.067 260.688 394.267 259.088 396.4 252.955C397.6 249.755 397.2 248.821 394.267 245.755C390.8 242.421 390.533 242.288 384.533 244.021C376.667 246.155 361.467 245.088 352.533 241.755C348.933 240.288 342.667 236.955 338.667 234.288C331.067 228.955 328.267 228.821 323.2 233.488C321.733 234.821 316.4 237.888 311.2 240.288C302.4 244.421 301.067 244.688 287.2 244.688C270.133 244.688 263.333 242.821 251.333 234.688C242.533 228.688 240.933 228.688 233.2 234.821C223.867 242.155 215.467 244.555 198.533 244.555C181.333 244.555 175.067 242.688 162.4 234.021C158.667 231.488 155.067 229.355 154.533 229.355C154 229.355 150.4 231.488 146.667 234.021C134.267 242.555 127.6 244.555 111.2 244.555C94.5333 244.688 88.4 242.955 75.3333 234.421C70.9333 231.621 66.9333 229.355 66.4 229.355C65.8667 229.355 62.2667 231.621 58.4 234.288Z" fill="#61A2D0"/>
</svg>
