<svg width="683" height="403" viewBox="0 0 683 403" fill="none" xmlns="http://www.w3.org/2000/svg">
<path d="M66.8219 4.53908C63.0886 8.27242 62.2886 10.1391 62.2886 14.5391C62.2886 17.6058 63.3552 21.6058 64.5552 23.6058C69.3552 30.9391 65.2219 30.6724 201.755 30.6724C341.622 30.6724 334.555 31.0724 338.822 22.0058C341.489 16.5391 341.489 14.5391 339.089 8.67242C335.222 -0.527583 343.089 0.00574995 200.155 0.00574995H71.3552L66.8219 4.53908Z" fill="#4F4F4F"/>
<path d="M408.155 4.53908C404.422 8.27242 403.622 10.1391 403.622 14.5391C403.622 17.6058 404.688 21.6058 405.888 23.6058C410.688 30.9391 406.555 30.6724 543.088 30.6724C682.955 30.6724 675.888 31.0724 680.155 22.0058C682.822 16.5391 682.822 14.5391 680.422 8.67242C676.555 -0.527583 684.422 0.00574995 541.488 0.00574995H412.688L408.155 4.53908Z" fill="#4F4F4F"/>
<path d="M6.02175 96.1391C1.75508 99.3391 -0.911584 106.539 0.288416 111.872C0.688416 113.872 2.95508 117.339 5.08842 119.472L9.08841 123.339L106.022 123.739C215.222 124.139 209.755 124.539 214.822 114.272C216.955 109.872 217.088 108.272 215.755 104.006C214.822 100.939 212.555 97.6058 210.422 96.1391C206.555 93.3391 205.222 93.3391 108.022 93.3391C11.6218 93.4725 9.48842 93.4725 6.02175 96.1391Z" fill="#4F4F4F"/>
<path d="M284.155 97.8724C274.822 107.206 279.888 121.339 293.088 123.339C296.288 123.739 340.955 124.006 392.288 123.739C478.822 123.339 485.888 123.206 489.088 120.939C493.355 118.006 495.622 113.339 495.622 107.206C495.622 103.472 494.555 101.339 491.088 97.8724L486.555 93.3391H387.622H288.688L284.155 97.8724Z" fill="#4F4F4F"/>
<path d="M172.022 186.806C169.755 187.472 166.288 189.872 164.422 192.139C156.555 201.472 162.688 214.806 175.755 216.672C178.955 217.072 248.688 217.339 330.555 217.072C479.222 216.672 479.488 216.672 483.222 213.872C485.222 212.406 487.755 208.806 488.822 205.872C490.422 201.339 490.288 200.006 488.555 195.739C487.488 193.072 484.822 189.739 482.822 188.406C479.222 186.139 471.888 186.006 327.622 185.739C238.022 185.606 174.555 186.006 172.022 186.806Z" fill="#4F4F4F"/>
<path d="M539.622 186.406C525.888 190.139 523.222 208.406 535.355 214.939C540.422 217.606 607.088 217.472 612.155 214.672C621.622 209.739 622.155 194.539 613.088 188.406C610.022 186.272 605.755 186.006 576.288 185.739C558.022 185.606 541.488 186.006 539.622 186.406Z" fill="#4F4F4F"/>
<path d="M104.289 279.739C94.4219 283.072 90.2885 292.406 94.9552 301.339C99.3552 309.739 93.2219 309.339 201.755 309.339H300.689L304.689 305.339C306.822 303.206 308.955 299.872 309.355 297.739C310.289 292.539 307.489 285.339 303.222 282.139C299.489 279.339 298.689 279.339 203.222 279.072C150.289 279.072 105.755 279.339 104.289 279.739Z" fill="#4F4F4F"/>
<path d="M381.355 280.539C371.622 284.939 369.355 297.606 377.089 305.206L381.222 309.339H480.155C588.689 309.339 582.555 309.739 586.955 301.339C590.689 294.139 588.422 285.606 581.755 281.206C577.622 278.406 387.755 277.872 381.355 280.539Z" fill="#4F4F4F"/>
<path d="M164.022 374.006C154.155 378.272 152.288 390.272 160.155 398.139L164.688 402.672H293.622C411.622 402.672 422.822 402.539 426.289 400.406C434.689 395.472 436.155 383.872 429.089 376.806L424.955 372.672L296.555 372.406C189.622 372.139 167.622 372.406 164.022 374.006Z" fill="#4F4F4F"/>
</svg>
