<svg width="384" height="310" viewBox="0 0 384 310" fill="none" xmlns="http://www.w3.org/2000/svg">
<path d="M143.223 1.86664C134.423 5.06664 129.89 9.99997 118.956 27.8666L108.29 45.3333L100.956 44.5333C88.423 43.2 88.423 43.0666 81.623 82C78.2897 100.267 75.623 116.933 75.623 118.8C75.623 122.8 79.0897 126.4 84.423 127.867C88.1564 128.933 88.2897 129.067 87.8897 136.933C87.223 149.067 88.823 150.4 109.09 154.133C118.156 155.867 127.49 157.2 129.756 157.333C135.09 157.333 139.356 153.2 140.423 146.8C140.823 144 141.623 140.933 142.156 140.133C142.956 138.933 152.29 140.133 179.223 144.8L215.223 151.067L214.69 159.2C213.623 171.6 214.956 172.667 236.956 176.667C246.823 178.533 256.69 179.6 258.69 179.2C263.223 178.267 265.89 174.4 267.09 166.933C268.023 161.333 268.023 161.333 273.623 161.333C284.023 161.333 284.29 160.667 290.956 123.333C294.29 104.933 296.956 88.4 296.956 86.4C296.956 81.8666 292.156 78 285.09 76.8C280.956 76.1333 279.49 75.3333 278.956 72.9333C278.556 71.3333 276.69 62.5333 274.823 53.3333C270.156 30.8 264.423 21.4666 252.156 17.3333C246.29 15.3333 158.023 -3.05176e-05 152.823 -3.05176e-05C150.29 0.133303 146.023 0.933305 143.223 1.86664ZM200.29 29.3333C235.89 35.6 246.023 37.8666 248.023 39.8666C249.623 41.4666 251.756 47.7333 253.756 56.8C255.49 64.6666 256.823 71.2 256.69 71.4666C255.89 72 133.09 50 132.29 49.0666C131.09 47.8666 144.69 25.7333 148.156 23.2C149.623 22.1333 151.756 21.3333 152.956 21.3333C154.023 21.3333 175.356 24.9333 200.29 29.3333ZM125.356 71.2C131.223 73.6 134.29 78.6666 134.29 85.6C134.29 92.2666 131.756 96.5333 126.29 99.3333C119.223 103.067 110.29 100.8 105.756 94.4C103.356 90.9333 102.956 81.0666 105.09 77.2C106.823 73.7333 114.156 69.3333 118.023 69.3333C119.623 69.3333 122.956 70.1333 125.356 71.2ZM263.356 96C272.956 101.867 274.023 113.733 265.49 121.2C251.223 133.733 230.956 114.533 243.223 100C249.09 92.9333 256.023 91.6 263.356 96Z" fill="#FB9726"/>
<path d="M59.6235 193.333C57.7568 193.867 50.2901 196.267 42.9568 198.667C19.6235 206.133 4.15679 215.067 0.956794 222.667C-2.77654 231.6 3.89013 236.933 30.2901 246.8C73.2235 262.667 87.8901 275.733 89.8901 299.867L90.6901 309.333H122.423H154.29V305.6C154.29 303.6 153.357 298.267 152.157 294C145.357 267.467 122.957 252.4 72.9568 240.533C41.7568 233.2 37.0901 231.867 33.6235 229.067C31.7568 227.6 30.2901 225.333 30.2901 224C30.2901 217.867 49.4901 206.267 74.9568 197.467C81.4901 195.067 87.0901 192.933 87.4901 192.667C88.5568 191.6 63.0901 192.133 59.6235 193.333Z" fill="#DDE3EC"/>
<path d="M214.29 196.533C194.823 202.533 181.49 208.4 173.623 214.4C162.157 223.067 162.423 230.267 174.423 237.733C177.89 239.733 196.69 247.067 216.423 253.867C257.757 268.133 273.09 274.133 288.957 282C307.09 291.2 316.557 298.8 318.823 306.267L319.757 309.333H351.89H383.89L382.957 304.267C381.49 296.267 378.157 290.533 370.957 283.2C353.357 265.467 321.623 254.667 248.957 241.333C202.023 232.8 197.49 231.467 196.157 225.733C194.957 221.2 198.157 217.333 207.623 211.733C214.823 207.467 222.557 204.133 248.29 194.267L253.623 192.133H240.957C230.423 192.133 226.023 192.8 214.29 196.533Z" fill="#DDE3EC"/>
</svg>
