<svg width="396" height="355" viewBox="0 0 396 355" fill="none" xmlns="http://www.w3.org/2000/svg">
<path d="M92.7451 2.806C82.8881 9.429 84.4561 25.257 95.4331 30.981C98.0091 32.328 114.699 32.553 198.259 32.553C286.747 32.553 298.62 32.328 301.868 30.757C308.029 27.838 309.597 25.257 309.933 17.623C310.381 9.541 309.037 6.174 303.661 2.582L299.852 0H198.371H96.8891L92.7451 2.806Z" fill="#F17420"/>
<path d="M55.8939 74.4228C50.9649 77.6778 49.2849 81.1578 49.2849 88.1168C49.2849 95.0768 50.9649 98.5568 55.8939 101.812L59.7019 104.394H197.363C350.145 104.394 338.832 104.955 344.432 96.8728C349.361 89.4638 347.233 79.6978 339.392 74.3098L335.696 71.8408H197.699H59.7019L55.8939 74.4228Z" fill="#F17420"/>
<path d="M31.363 145.926C21.842 147.161 17.922 151.988 17.922 162.427C18.034 169.274 19.266 171.632 24.642 175.448C27.219 177.244 38.42 177.357 197.698 177.357C366.498 177.357 367.954 177.357 371.651 175.112C380.499 169.723 380.724 154.457 371.987 148.284C368.85 145.926 368.402 145.926 202.627 145.702C111.226 145.477 34.163 145.59 31.363 145.926Z" fill="#F17420"/>
<path d="M176.976 220.124C82.103 224.39 18.033 244.707 3.024 275.464C-1.008 283.546 -1.008 290.056 3.024 298.25C20.05 333.048 105.962 356.396 209.459 354.264C266.697 353.141 310.045 346.182 346.896 332.262C393.268 314.751 408.054 287.699 384.196 263.79C360.113 239.543 304.556 223.941 231.301 220.573C200.61 219.226 196.018 219.226 176.976 220.124Z" fill="#F17420"/>
</svg>
