<svg width="247" height="161" viewBox="0 0 247 161" fill="none" xmlns="http://www.w3.org/2000/svg">
<path fill-rule="evenodd" clip-rule="evenodd" d="M79.897 4.53364C71.7863 9.21313 68.1785 14.8587 60.5138 34.3525L54.6644 49.2692C53.6743 51.7942 51.3147 53.52 48.6084 53.6985L45.6814 53.8916L45.5554 53.9003C33.1068 54.7545 33.084 54.7561 33.1478 94.1463C33.1316 96.8567 33.1236 99.531 33.1225 102.128L48.8583 107.5L56.8751 98.4466C55.2119 94.2858 54.3874 88.3757 55.4245 85.3443C56.5295 81.6293 62.9874 76.0227 66.7953 75.3513C68.371 75.0734 71.7926 75.2824 74.3413 75.9162C75.0316 76.066 75.6932 76.2545 76.3259 76.4806V76.4806C76.8704 75.8657 77.8182 75.8307 78.4066 76.4037L115.811 112.829C116.268 113.274 116.784 113.655 117.345 113.96L163.279 138.994L170.422 138.978C173.999 138.97 177.007 141.66 177.396 145.216L177.567 146.781L202.56 160.401C212.601 160.526 222.503 159.864 224.403 159.122C228.705 157.416 230.66 153.145 230.545 145.583C230.519 142.731 230.505 141.312 231.198 140.482C231.884 139.661 233.263 139.418 236.007 138.934C246.249 137.128 246.396 136.425 246.478 98.5013C246.566 79.802 246.321 63.0568 245.974 61.0872C245.187 56.6227 239.788 53.6483 232.62 53.6937C228.434 53.7549 226.851 53.2217 225.909 50.9508C225.237 49.4446 221.871 41.1024 218.435 32.3663C209.926 10.9857 202.659 2.7897 189.861 0.849249C183.736 -0.10163 94.148 0.125335 89.027 1.02831C86.5553 1.59952 82.4924 3.12827 79.897 4.53364ZM82.1097 160.413L72.723 160.414C75.9316 160.46 79.1636 160.453 82.1097 160.413ZM140.866 21.6735C177.014 21.6631 187.387 22.1357 189.703 23.758C191.557 25.0559 194.746 30.8569 198.29 39.4385C200.431 44.6261 202.268 49.2102 203.157 51.6103C203.58 52.7527 203.137 53.4563 201.92 53.4954C186.537 53.9883 78.2108 53.642 77.3259 52.9151C75.9358 51.9417 85.4857 27.783 88.4598 24.6862C89.719 23.3811 91.681 22.2228 92.8628 22.0144C93.9132 21.8292 115.548 21.67 140.866 21.6735ZM214.551 76.3759C225.024 80.4865 228.135 91.9876 221.028 100.823C209.155 115.643 185.862 100.254 195.418 83.8113C199.969 75.8332 206.565 73.3162 214.551 76.3759Z" fill="#FB9726"/>
<path d="M43.8699 138.83C38.3629 138.312 34.3238 135.368 33.6292 131.429C33.3524 129.859 33.1165 117.321 33.1225 102.128L48.8583 107.5L56.8751 98.4466L56.8824 98.4646C57.5101 100.031 58.2569 101.348 59.0677 102.167C64.6436 107.683 73.8348 108.364 80.1458 103.46C85.0432 99.7533 86.7971 95.1115 85.6395 88.5461C84.5697 82.4789 81.3713 78.2837 76.3259 76.4806V76.4806C76.8704 75.8657 77.8182 75.8307 78.4066 76.4037L115.811 112.829C116.268 113.274 116.784 113.655 117.345 113.96L163.279 138.994L140.17 139.044C112.836 139.125 103.436 139.564 102.856 140.885C102.47 141.765 102.215 144.924 102.307 147.751C102.368 154.239 98.8837 159.051 93.6314 159.977C92.1601 160.148 87.6383 160.338 82.1097 160.413L72.723 160.414C52.116 160.257 50.3087 159.222 48.8583 147.157C47.8862 139.34 47.7318 139.232 43.8699 138.83Z" fill="#DDE3EC"/>
<path d="M93.6314 159.977C98.8837 159.051 102.368 154.239 102.307 147.751C102.215 144.924 102.47 141.765 102.856 140.885C103.436 139.564 112.836 139.125 140.17 139.044L163.279 138.994L177.567 146.781L177.599 147.067C178.701 159.464 180.2 160.282 202.56 160.401L82.1097 160.413C87.6383 160.338 92.1601 160.148 93.6314 159.977Z" fill="#DDE3EC"/>
<path d="M202.56 160.401C180.2 160.282 178.701 159.464 177.599 147.067L177.567 146.781L202.56 160.401Z" fill="#DDE3EC"/>
<path d="M33.6292 131.429C34.3238 135.368 38.3629 138.312 43.8699 138.83C47.7318 139.232 47.8862 139.34 48.8583 147.157C50.3087 159.222 52.116 160.257 72.723 160.414L7.45334 160.414C2.47057 160.414 -0.916758 155.356 0.980858 150.748L19.9938 104.586C21.4023 101.167 25.2279 99.4326 28.7279 100.628L33.1225 102.128C33.1165 117.321 33.3524 129.859 33.6292 131.429Z" fill="#DDE3EC"/>
<path d="M85.6395 88.5461C86.7971 95.1115 85.0432 99.7533 80.1458 103.46C73.8348 108.364 64.6436 107.683 59.0677 102.167C58.2569 101.348 57.5101 100.031 56.8824 98.4646L56.8751 98.4466L76.3259 76.4806C81.3713 78.2837 84.5697 82.4789 85.6395 88.5461Z" fill="#DDE3EC"/>
</svg>
